{"title":"Wild.Tales.[Relatos.Salvajes].2014.WEBRip.x264.HORiZON-ArtSubs","uid":11710200,"size":1869102444,"categoryP":"video","categoryS":"movies","magnet":"?xt=urn:btih:839c1b63dfe2ee6bf66e3fc78c9efe4433e9ea11&amp;dn=Wild.Tales.%5BRelatos.Salvajes%5D.2014.WEBRip.x264.HORiZON-ArtSubs&amp;tr=udp%3A%2F%2Ftracker.openbittorrent.com%3A80&amp;tr=udp%3A%2F%2Fopen.demonii.com%3A1337&amp;tr=udp%3A%2F%2Ftracker.coppersurfer.tk%3A6969&amp;tr=udp%3A%2F%2Fexodus.desync.com%3A6969","seeders":327,"leechers":8,"uploader":"lletaif","files":1,"time":1424304607,"description":"Media Info:\n\nGeneral\nUnique ID                                : 291033758549384601135596850556540239651 (0xDAF310238199E8CDCEB324D2B1EF3F23)\nComplete name                            : E:bkp_jan_2015Wild.Tales.[Relatos.Salvajes].2014.WEBRip.x264.HORiZON-ArtSubs.mkv\nFormat                                   : Matroska\nFormat version                           : Version 2\nFile size                                : 1.74 GiB\nDuration                                 : 2h 1mn\nOverall bit rate                         : 2 043 Kbps\nWriting application                      : HandBrake 0.9.5\nWriting library                          : libmkv 0.6.4.1\n\nVideo\nID                                       : 1\nFormat                                   : AVC\nFormat/Info                              : Advanced Video Codec\nFormat profile                           : &lt;a class=&quot;__cf_email__&quot; href=&quot;/cdn-cgi/l/email-protection&quot; data-cfemail=&quot;f3bb9a949bb3bfc7ddc3&quot;&gt;[email&amp;#160;protected]&lt;/a&gt;&lt;script cf-hash='f9e31' type=&quot;text/javascript&quot;&gt;\n/* &lt;![CDATA[ */!function(){try{var t=&quot;currentScript&quot;in document?document.currentScript:function(){for(var t=document.getElementsByTagName(&quot;script&quot;),e=t.length;e--;)if(t[e].getAttribute(&quot;cf-hash&quot;))return t[e]}();if(t&amp;&amp;t.previousSibling){var e,r,n,i,c=t.previousSibling,a=c.getAttribute(&quot;data-cfemail&quot;);if(a){for(e=&quot;&quot;,r=parseInt(a.substr(0,2),16),n=2;a.length-n;n+=2)i=parseInt(a.substr(n,2),16)^r,e+=String.fromCharCode(i);e=document.createTextNode(e),c.parentNode.replaceChild(e,c)}}}catch(u){}}();/* ]]&gt; */&lt;/script&gt;\nFormat settings, CABAC                   : Yes\nFormat settings, ReFrames                : 4 frames\nCodec ID                                 : V_MPEG4/ISO/AVC\nDuration                                 : 2h 1mn\nBit rate                                 : 1 676 Kbps\nWidth                                    : 1 904 pixels\nHeight                                   : 800 pixels\nDisplay aspect ratio                     : 2.40:1\nFrame rate mode                          : Constant\nFrame rate                               : 23.976 fps\nColor space                              : YUV\nChroma subsampling                       : 4:2:0\nBit depth                                : 8 bits\nScan type                                : Progressive\nBits/(Pixel*Frame)                       : 0.046\nStream size                              : 1.38 GiB (79%)\nWriting library                          : x264 core 112\nEncoding settings                        : cabac=1 / ref=3 / deblock=1:0:0 / analyse=0x3:0x113 / me=hex / subme=7 / psy=1 / psy_rd=1.00:0.00 / mixed_ref=1 / me_range=16 / chroma_me=1 / trellis=1 / 8x8dct=1 / cqm=0 / deadzone=21,11 / fast_pskip=1 / chroma_qp_offset=-2 / threads=6 / sliced_threads=0 / nr=0 / decimate=1 / interlaced=0 / constrained_intra=0 / bframes=3 / b_pyramid=2 / b_adapt=2 / b_bias=0 / direct=1 / weightb=1 / open_gop=0 / weightp=2 / keyint=240 / keyint_min=23 / scenecut=40 / intra_refresh=0 / rc_lookahead=50 / rc=abr / mbtree=1 / bitrate=1676 / ratetol=1.0 / qcomp=0.60 / qpmin=3 / qpmax=51 / qpstep=4 / ip_ratio=1.40 / aq=1:1.00\nLanguage                                 : English\nDefault                                  : Yes\nForced                                   : No\nColor primaries                          : BT.709\nTransfer characteristics                 : BT.709\nMatrix coefficients                      : BT.709\n\nAudio\nID                                       : 2\nFormat                                   : AC-3\nFormat/Info                              : Audio Coding 3\nMode extension                           : CM (complete main)\nFormat settings, Endianness              : Big\nCodec ID                                 : A_AC3\nDuration                                 : 2h 1mn\nBit rate mode                            : Constant\nBit rate                                 : 384 Kbps\nChannel(s)                               : 6 channels\nChannel positions                        : Front: L C R, Side: L R, LFE\nSampling rate                            : 48.0 KHz\nBit depth                                : 16 bits\nCompression mode                         : Lossy\nStream size                              : 335 MiB (19%)\nLanguage                                 : Spanish\nDefault                                  : Yes\nForced                                   : No\n\nMenu\n00:00:00.000                             : Chapter 1\n00:10:28.045                             : Chapter 2\n00:20:35.068                             : Chapter 3\n00:38:55.002                             : Chapter 4\n00:48:24.029                             : Chapter 5\n01:01:48.000                             : Chapter 6\n01:10:09.001                             : Chapter 7\n01:25:10.027                             : Chapter 8\n01:40:40.040                             : Chapter 9\n01:55:01.026                             : Chapter 10","torrent":{"xt":"urn:btih:839c1b63dfe2ee6bf66e3fc78c9efe4433e9ea11","amp;dn":"Wild.Tales.%5BRelatos.Salvajes%5D.2014.WEBRip.x264.HORiZON-ArtSubs","amp;tr":["udp%3A%2F%2Ftracker.openbittorrent.com%3A80","udp%3A%2F%2Fopen.demonii.com%3A1337","udp%3A%2F%2Ftracker.coppersurfer.tk%3A6969","udp%3A%2F%2Fexodus.desync.com%3A6969"],"infoHash":"839c1b63dfe2ee6bf66e3fc78c9efe4433e9ea11","infoHashBuffer":{"type":"Buffer","data":[131,156,27,99,223,226,238,107,246,110,63,199,140,158,254,68,51,233,234,17]},"announce":[],"urlList":[]}}